<svg width="64" height="64" viewBox="0 0 64 64" fill="none" xmlns="http://www.w3.org/2000/svg">
<g clip-path="url(#clip0_7244_739)">
<path d="M11.1895 11.5601C10.3995 11.5801 9.76953 12.2101 9.76953 12.9801C9.76953 13.7501 10.4295 14.4001 11.2295 14.4001C12.0295 14.4001 12.6895 13.7601 12.6895 12.9801C12.6895 12.2001 12.0295 11.5601 11.2295 11.5601H11.1895Z" fill="#898989"/>
<path d="M17.2003 11.5601C16.4103 11.5801 15.7803 12.2101 15.7803 12.9801C15.7803 13.7501 16.4403 14.4001 17.2403 14.4001C18.0403 14.4001 18.7003 13.7601 18.7003 12.9801C18.7003 12.2001 18.0403 11.5601 17.2403 11.5601H17.2003Z" fill="#898989"/>
<path d="M23.2198 11.5601C22.4298 11.5801 21.7998 12.2101 21.7998 12.9801C21.7998 13.7501 22.4598 14.4001 23.2598 14.4001C24.0598 14.4001 24.7198 13.7601 24.7198 12.9801C24.7198 12.2001 24.0598 11.5601 23.2598 11.5601H23.2198Z" fill="#898989"/>
<path d="M38.46 12.04C37.93 12.04 37.5 12.46 37.5 12.98C37.5 13.5 37.93 13.92 38.46 13.92H53.27C53.53 13.92 53.77 13.82 53.96 13.65C54.14 13.48 54.25 13.24 54.25 12.99C54.25 12.47 53.81 12.05 53.28 12.05H38.47L38.46 12.04Z" fill="white"/>
<path d="M57.22 6H6.78C3.59 6 1 8.52 1 11.61V52.39C1 55.48 3.59 58 6.78 58H57.22C60.41 58 63 55.48 63 52.39V11.61C63 8.52 60.41 6 57.22 6ZM61.06 52.39C61.06 54.47 59.36 56.12 57.22 56.12H6.78C4.63 56.12 2.93 54.47 2.93 52.39V19.95H61.06V52.39ZM61.06 18.08H2.93V11.61C2.93 9.53 4.63 7.88 6.78 7.88H57.22C59.37 7.88 61.06 9.53 61.06 11.61V18.07V18.08Z" fill="#146EF5"/>
<path d="M42.8897 30.54C42.3597 30.54 41.9297 30.96 41.9297 31.48C41.9297 32 42.3597 32.42 42.8897 32.42H54.9697C55.5097 32.42 55.9397 32 55.9397 31.48C55.9397 30.96 55.5097 30.54 54.9697 30.54H42.8997H42.8897Z" fill="#898989"/>
<path d="M13.1903 29.5098V26.1998C13.1903 25.6798 12.7603 25.2598 12.2303 25.2598C11.9703 25.2598 11.7303 25.3598 11.5403 25.5298C11.3603 25.6998 11.2503 25.9398 11.2503 26.1898V29.5098C9.43031 29.9398 8.07031 31.5398 8.07031 33.4198C8.07031 35.2998 9.43031 36.8998 11.2503 37.3298V49.8598C11.2503 50.1098 11.3503 50.3498 11.5303 50.5298C11.7103 50.7098 11.9603 50.7998 12.2203 50.7998C12.4803 50.7998 12.7203 50.6998 12.9003 50.5198C13.0803 50.3398 13.1803 50.0998 13.1803 49.8498V37.3198C15.0003 36.8998 16.3703 35.2998 16.3703 33.4098C16.3703 31.5198 15.0003 29.9198 13.1803 29.4898L13.1903 29.5098ZM12.2303 35.5798C10.9903 35.5798 10.0103 34.6298 10.0103 33.4298C10.0103 32.2298 10.9903 31.2798 12.2303 31.2798C13.4703 31.2798 14.4503 32.2298 14.4503 33.4298C14.4503 34.6298 13.4703 35.5798 12.2303 35.5798Z" fill="white"/>
<path d="M34.0897 29.51V26.19C34.0897 25.67 33.6497 25.25 33.1197 25.25C32.5897 25.25 32.1597 25.67 32.1597 26.19V29.51C30.3397 29.94 28.9697 31.54 28.9697 33.43C28.9697 35.32 30.3397 36.92 32.1597 37.34V49.87C32.1597 50.12 32.2597 50.36 32.4397 50.54C32.6197 50.72 32.8697 50.82 33.1197 50.82C33.3697 50.82 33.6297 50.72 33.8097 50.55C33.9897 50.37 34.0897 50.13 34.0897 49.88V37.35C35.9097 36.92 37.2697 35.33 37.2697 33.44C37.2697 31.55 35.9097 29.95 34.0897 29.53V29.51ZM33.1197 35.58C31.8797 35.58 30.8997 34.63 30.8997 33.43C30.8997 32.23 31.8797 31.28 33.1197 31.28C34.3597 31.28 35.3397 32.23 35.3397 33.43C35.3397 34.63 34.3597 35.58 33.1197 35.58Z" fill="white"/>
<path d="M42.8897 37.1001C42.3597 37.1001 41.9297 37.5201 41.9297 38.0401C41.9297 38.5601 42.3597 38.9801 42.8897 38.9801H54.9697C55.5097 38.9801 55.9397 38.5601 55.9397 38.0401C55.9397 37.5201 55.5097 37.1101 54.9697 37.1001H42.8997H42.8897Z" fill="#898989"/>
<path d="M23.6403 38.7298V26.1998C23.6403 25.6798 23.2103 25.2598 22.6803 25.2598C22.1403 25.2598 21.7103 25.6798 21.7103 26.1998V38.7298C19.8903 39.1598 18.5303 40.7598 18.5303 42.6398C18.5303 44.5198 19.8903 46.1298 21.7103 46.5598V49.8698C21.7103 50.1198 21.8103 50.3598 22.0003 50.5398C22.1803 50.7198 22.4303 50.8098 22.6903 50.8098C22.9503 50.8098 23.1903 50.7098 23.3703 50.5298C23.5503 50.3498 23.6503 50.1098 23.6503 49.8598V46.5498C25.4703 46.1198 26.8303 44.5198 26.8303 42.6298C26.8303 40.7398 25.4703 39.1398 23.6503 38.7098L23.6403 38.7298ZM22.6803 44.7998C21.4403 44.7998 20.4603 43.8498 20.4603 42.6498C20.4603 41.4498 21.4403 40.4998 22.6803 40.4998C23.9203 40.4998 24.8903 41.4498 24.8903 42.6498C24.8903 43.8498 23.9103 44.7998 22.6803 44.7998Z" fill="white"/>
<path d="M42.8897 43.6602C42.3597 43.6602 41.9297 44.0802 41.9297 44.6002C41.9297 44.8502 42.0297 45.0902 42.2097 45.2702C42.3897 45.4502 42.6397 45.5502 42.8897 45.5502H54.9697C55.2297 45.5502 55.4697 45.4502 55.6497 45.2702C55.8297 45.0902 55.9297 44.8502 55.9297 44.6002C55.9297 44.0802 55.4997 43.6702 54.9597 43.6602H42.8897Z" fill="#898989"/>
</g>
<defs>
<clipPath id="clip0_7244_739">
<rect width="62" height="52" fill="white" transform="translate(1 6)"/>
</clipPath>
</defs>
</svg>
