<svg width="64" height="64" viewBox="0 0 64 64" fill="none" xmlns="http://www.w3.org/2000/svg">
<path fill-rule="evenodd" clip-rule="evenodd" d="M9.13911 5.10937C6.05653 5.10937 3.55762 7.60825 3.55762 10.6908C3.55762 13.7645 6.04231 16.2579 9.11278 16.2721L9.13911 16.272H14.7199V5.10937H9.13911ZM15.4699 3.60938H21.8014C25.7124 3.60938 28.8829 6.7798 28.8829 10.6908C28.8829 13.4601 27.2933 15.8581 24.9767 17.0221C27.2933 18.1861 28.8829 20.5841 28.8829 23.3534C28.8829 27.2644 25.7124 30.4348 21.8014 30.4348C19.5347 30.4348 17.5168 29.3699 16.2206 27.713V29.6847V36.0161C16.2206 39.9271 13.0501 43.0975 9.13911 43.0975C5.22812 43.0975 2.05762 39.9271 2.05762 36.0161C2.05762 33.2468 3.64726 30.8488 5.96383 29.6848C3.64726 28.5207 2.05762 26.1227 2.05762 23.3534C2.05762 20.5841 3.64726 18.1861 5.96383 17.0221C3.64726 15.8581 2.05762 13.4601 2.05762 10.6908C2.05762 6.7798 5.22812 3.60938 9.13911 3.60938H15.4699ZM21.7662 17.7722H21.8014C21.8102 17.7722 21.819 17.7721 21.8277 17.7721C24.8982 17.7863 27.3829 20.2797 27.3829 23.3534C27.3829 26.4359 24.884 28.9348 21.8014 28.9348C18.7485 28.9348 16.2681 26.4839 16.2206 23.4424V23.2645C16.2679 20.2347 18.7295 17.7909 21.7662 17.7722ZM21.8277 16.2721C21.819 16.2721 21.8102 16.272 21.8014 16.272C21.7882 16.272 21.775 16.2721 21.7618 16.2722H16.2206V5.10937H21.8014C24.884 5.10937 27.3829 7.60825 27.3829 10.6908C27.3829 13.7645 24.8982 16.2579 21.8277 16.2721ZM16.2206 17.7722H17.4425C16.9872 18.1282 16.5767 18.5387 16.2206 18.9938V17.7722ZM3.55762 23.3534C3.55762 20.2797 6.04231 17.7863 9.11278 17.7721L9.13911 17.7722H14.7206V23.2533C14.7201 23.2866 14.7199 23.32 14.7199 23.3534C14.7199 23.3869 14.7201 23.4203 14.7206 23.4536V28.9347H9.13911L9.11278 28.9348C6.04231 28.9206 3.55762 26.4272 3.55762 23.3534ZM9.11278 30.4348H9.13911H14.7206V36.0161C14.7206 39.0986 12.2217 41.5975 9.13911 41.5975C6.05653 41.5975 3.55762 39.0986 3.55762 36.0161C3.55762 32.9424 6.04231 30.449 9.11278 30.4348Z" fill="#898989"/>
<path fill-rule="evenodd" clip-rule="evenodd" d="M20.8721 48.9544C24.3753 48.5944 28.1596 47.6543 30.6249 45.0631L31.4225 44.0731H20.8721V33.4397L31.5224 33.4395V43.8568L37.2198 33.4397H45.5499V43.3513L51.0846 33.4395H63.0004L48.6294 59.0001L36.698 58.9723L42.5805 48.6695C36.8828 54.9276 29.3385 58.2556 20.8721 58.9723V48.9544Z" fill="white"/>
<path d="M32 6L63 29" stroke="#146EF5" stroke-width="1.5" stroke-linecap="round" stroke-linejoin="round"/>
<path d="M32 25L37 28" stroke="#146EF5" stroke-width="1.5" stroke-linecap="round" stroke-linejoin="round"/>
<path d="M32 16L50.5 29" stroke="#146EF5" stroke-width="1.5" stroke-linecap="round" stroke-linejoin="round"/>
<path d="M6 48L17 56" stroke="#146EF5" stroke-width="1.5" stroke-linecap="round" stroke-linejoin="round"/>
</svg>
