<svg width="64" height="64" viewBox="0 0 64 64" fill="none" xmlns="http://www.w3.org/2000/svg">
<path d="M34.8802 1.99511C44.0835 6.68337 50.9437 15.5786 52 26.6824L56.7511 31.8514C58.1974 33.4248 59 35.4841 59 37.6213V54.0326C59 58.4509 55.4183 62.0326 51 62.0326L13 62.0327C8.58172 62.0327 5 58.4509 5 54.0327V37.597C5 35.4744 5.79173 33.4281 7.22038 31.8582L12 26.6062C13.0817 15.5493 19.9294 6.67558 29.1197 1.99484C30.9292 1.07322 33.0707 1.07335 34.8802 1.99511Z" stroke="#146EF5" stroke-width="1.5" stroke-linecap="round"/>
<path d="M41 46C41 41.5 42.8 36 44 34" stroke="#898989" stroke-width="1.5" stroke-linecap="round" stroke-linejoin="round"/>
<path d="M23 46C23 41.5 21.2 36 20 34" stroke="#898989" stroke-width="1.5" stroke-linecap="round" stroke-linejoin="round"/>
<path d="M32 41.8911V55.0449" stroke="white" stroke-width="1.5" stroke-linecap="round" stroke-linejoin="round"/>
<path d="M19.658 32.1116C19.658 24.3581 24.0381 13.8035 31.9999 9.7373C39.9618 13.8035 44.3417 24.3581 44.3417 32.1116V33.0828L50.9999 40.2101V54.7472L40.8666 46.4212L31.9999 54.7472L23.1333 46.4212L13 54.7472V40.2101L19.658 33.0828V32.1116Z" stroke="white" stroke-width="1.5" stroke-linecap="round" stroke-linejoin="round"/>
<path d="M32 30.7612C34.2091 30.7612 36 28.9704 36 26.7612C36 24.5521 34.2091 22.7612 32 22.7612C29.7909 22.7612 28 24.5521 28 26.7612C28 28.9704 29.7909 30.7612 32 30.7612Z" stroke="#898989" stroke-width="1.5"/>
</svg>
