<svg width="64" height="64" viewBox="0 0 64 64" fill="none" xmlns="http://www.w3.org/2000/svg">
<path d="M39.5002 16.2502V11.4993C39.5002 1.73051 26.5587 -1.72211 21.6927 6.74846L7.2084 31.9618C3.55576 38.3202 8.14562 46.2502 15.4784 46.2502H23.5002V52.4557C23.5002 62.1184 36.2171 65.655 41.2058 57.3797L57.2822 30.7117C61.1143 24.3551 56.5365 16.2502 49.1142 16.2502H39.5002Z" stroke="#146EF5" stroke-width="1.5" stroke-linejoin="round"/>
<path d="M32.0369 13.4232C32.0369 11.9619 30.0954 11.4536 29.3793 12.7274L16.1891 36.1914C15.657 37.1379 16.341 38.307 17.4268 38.307H32.0369V50.6697C32.0369 52.1246 33.9647 52.6381 34.6884 51.3761L48.7805 26.8021C49.3233 25.8556 48.64 24.6759 47.5488 24.6759H32.0369V13.4232Z" stroke="white" stroke-width="1.5" stroke-linejoin="round"/>
</svg>
