<svg width="32" height="32" viewBox="0 0 32 32" fill="none" xmlns="http://www.w3.org/2000/svg">
<path d="M0 11.9192C2.8279 11.9142 5.65579 11.9241 8.48369 11.915C8.48038 14.7524 8.47707 17.5897 8.48204 20.427C5.65497 20.4361 2.8279 20.427 0 20.4311C0.000827839 17.5938 0.00331135 14.7565 0 11.9192Z" fill="white"/>
<path d="M26.72 12.2289C26.792 12.1026 26.8764 11.9838 26.9658 11.8691C28.3657 14.2717 29.7507 16.6849 31.1754 19.0742C31.4477 19.5272 31.6994 19.995 31.9999 20.4314C28.6256 20.4306 25.2522 20.4314 21.8779 20.4306C23.4831 17.6915 25.1024 14.9606 26.72 12.2289Z" fill="white"/>
<path d="M15.1169 11.8994C16.1616 11.7773 17.2734 11.9703 18.1335 12.5999C18.439 12.8432 18.766 13.0668 19.0202 13.368C19.6766 14.1353 20.0881 15.1237 20.0864 16.1393C20.1286 17.6186 19.3207 19.0773 18.0657 19.8594C16.3611 20.9468 13.9116 20.6506 12.534 19.1672C11.7906 18.3496 11.3271 17.249 11.3784 16.136C11.4032 15.2029 11.6855 14.2516 12.2956 13.5288C12.9736 12.6444 14.0134 12.057 15.1169 11.8994Z" fill="#423AE6"/>
</svg>
