<svg width="196" height="17" viewBox="0 0 196 17" fill="none" xmlns="http://www.w3.org/2000/svg">
<g clip-path="url(#clip0_5322_2900)">
<path d="M109.186 1.3923C110.488 -0.0300549 112.629 -0.238279 114.413 0.213413C114.381 0.786838 114.355 1.36345 114.329 1.94329C113.394 1.92727 112.282 1.71904 111.546 2.44303C110.559 3.23429 110.944 4.6054 110.835 5.701C111.832 5.72022 112.831 5.717 113.831 5.70739C113.828 6.35449 113.828 7.0016 113.837 7.65512C112.863 7.6359 111.893 7.62629 110.922 7.61668C110.893 10.66 110.935 13.7033 110.97 16.7466C110.067 16.737 109.167 16.737 108.267 16.7402C108.283 13.7065 108.254 10.676 108.293 7.64552C107.746 7.62309 107.203 7.60707 106.66 7.58465C106.65 6.97278 106.647 6.36411 106.637 5.75545C107.203 5.75225 107.772 5.74903 108.341 5.74583C108.302 4.27863 108.161 2.5936 109.186 1.3923Z" fill="white"/>
<path d="M115.84 0.150069C116.753 0.137255 117.669 0.137246 118.588 0.140449C118.591 5.68889 118.55 11.231 118.553 16.7794C117.656 16.773 116.759 16.7762 115.862 16.773C115.923 11.231 115.856 5.69211 115.84 0.150069Z" fill="white"/>
<path d="M94.7488 0.210738C95.6231 0.201128 96.5006 0.191525 97.3781 0.178711C97.3235 2.34107 97.4713 4.50342 97.3524 6.66578C99.1621 4.99676 102.357 4.81736 104.035 6.76188C105.488 8.65514 105.465 11.2788 104.899 13.4956C104.459 15.2703 102.746 16.3916 101.068 16.8369C98.9531 17.2213 96.8542 16.4909 94.7295 16.555C94.707 11.1058 94.7327 5.65988 94.7488 0.210738ZM97.362 8.50458C97.3942 10.4907 97.3267 12.4769 97.3492 14.4631C98.4967 14.8603 99.8435 15.296 100.965 14.5816C102.37 13.8448 102.611 12.0765 102.537 10.6541C102.505 9.52007 102.196 8.05609 100.962 7.66206C99.6924 7.15271 98.4163 7.84146 97.362 8.50458Z" fill="white"/>
<path d="M61.1504 1.18131C62.1661 1.13005 63.1851 1.13005 64.204 1.14287C65.0558 5.28177 66.483 9.29576 67.0873 13.4892C68.3248 9.44633 69.4306 5.35227 70.5588 1.27743C71.4845 1.26782 72.4071 1.26781 73.3328 1.27422C74.4321 5.40032 75.4832 9.54243 76.6661 13.6461C77.6047 9.45273 78.749 5.30741 79.7808 1.13968C80.7322 1.14609 81.6805 1.14608 82.6319 1.17171C80.9894 6.31331 79.4593 11.4902 78.0579 16.7055C77.0357 16.7119 76.0104 16.7279 74.9882 16.7439C74.0464 12.7235 72.8989 8.75755 71.851 4.766C70.6488 8.72231 69.617 12.7331 68.4888 16.7119C67.4602 16.7151 66.4316 16.7151 65.403 16.699C64.7151 13.4539 63.7315 10.2793 62.9151 7.06293C62.3269 5.10239 61.9122 3.08418 61.1504 1.18131Z" fill="white"/>
<path d="M157.587 1.17793C160.926 1.34772 164.552 0.642954 167.606 2.36002C169.92 3.51969 170.727 6.30991 170.749 8.71253C170.846 11.6438 169.431 14.8344 166.59 16.0037C163.723 17.1442 160.576 16.6124 157.574 16.7629C157.59 11.5669 157.571 6.37079 157.587 1.17793ZM160.328 3.31786C160.309 7.08517 160.345 10.8493 160.335 14.6134C162.415 14.6871 164.748 14.6935 166.445 13.3096C167.625 12.1179 167.869 10.3207 167.834 8.71895C167.863 7.07876 167.419 5.22394 165.989 4.24047C164.334 3.11925 162.231 3.25059 160.328 3.31786Z" fill="white"/>
<path d="M83.5688 7.23305C85.1181 5.04187 88.58 4.71511 90.6596 6.31686C92.1768 7.71679 92.3375 9.9432 92.225 11.8749C89.7725 11.8172 87.3167 11.8204 84.8642 11.8621C85.0442 12.8744 85.327 14.0052 86.3235 14.5242C88.0432 15.4211 90.11 14.9727 91.82 14.2743C91.8618 14.9246 91.91 15.5781 91.9679 16.2348C90.2386 16.9556 88.31 17.1478 86.4649 16.8563C84.6167 16.52 82.9259 15.12 82.5466 13.2396C82.1191 11.231 82.2863 8.91809 83.5688 7.23305ZM86.0374 7.76484C85.2852 8.30623 85.1149 9.27047 84.8449 10.0937C86.5228 10.1258 88.2039 10.0713 89.885 10.0425C89.721 9.21922 89.7564 8.21332 88.9946 7.67193C88.1299 7.0953 86.8506 7.0793 86.0374 7.76484Z" fill="white"/>
<path d="M124.415 5.74566C126.343 5.10816 128.712 5.15622 130.329 6.5145C132.688 8.58716 132.785 12.4314 131.126 14.9557C129.519 17.1565 126.292 17.384 123.926 16.4197C119.86 14.3951 120.165 7.37944 124.415 5.74566ZM125.63 7.49798C124.299 8.09703 123.945 9.6347 123.875 10.9514C123.884 12.0918 124 13.3572 124.832 14.2253C125.909 15.5228 128.208 15.1992 128.976 13.7192C129.712 12.1943 129.705 10.3235 129.03 8.77617C128.484 7.54282 126.851 6.90854 125.63 7.49798Z" fill="white"/>
<path d="M133.314 5.61467C134.231 5.61147 135.15 5.62748 136.069 5.6467C136.709 8.46256 137.487 11.2432 138.133 14.059C139.046 11.2912 139.807 8.47858 140.646 5.68834C141.534 5.65631 142.427 5.65311 143.317 5.67233C144.092 8.52023 144.741 11.4033 145.619 14.2192C146.509 11.3937 147.126 8.49141 148.01 5.65952C148.875 5.64991 149.746 5.64029 150.614 5.6467C149.287 9.3179 148.342 13.1172 146.921 16.7564C145.94 16.7564 144.963 16.7628 143.986 16.766C143.33 13.9245 142.546 11.115 141.884 8.27677C140.932 11.0542 140.306 13.9341 139.332 16.7051C138.361 16.7596 137.39 16.7564 136.423 16.7532C135.481 13.0147 134.269 9.34994 133.314 5.61467Z" fill="white"/>
<path d="M173.648 7.63631C175.3 4.67628 180.411 4.4168 182.028 7.53059C182.848 8.83441 182.729 10.4137 182.693 11.8873C180.254 11.8201 177.811 11.8201 175.371 11.8713C175.377 13.1175 176.011 14.4213 177.258 14.8474C178.907 15.3567 180.671 14.9435 182.237 14.3412C182.246 15.0204 182.259 15.7059 182.25 16.3883C179.826 17.0001 176.991 17.4422 174.763 16.0263C172.128 14.1682 172.118 10.1959 173.648 7.63631ZM176.535 7.67475C175.721 8.18731 175.525 9.1772 175.348 10.0485C177.013 10.0934 178.682 10.0774 180.35 10.0934C180.189 9.42065 180.109 8.71908 179.82 8.0912C179.148 7.02764 177.476 6.8963 176.535 7.67475Z" fill="white"/>
<path d="M183.672 5.66571C184.643 5.64009 185.614 5.63369 186.585 5.69776C187.571 8.58731 188.446 11.5121 189.42 14.408C190.429 11.496 191.538 8.61614 192.37 5.65291C193.296 5.62408 194.222 5.60485 195.151 5.56641C193.56 9.22159 192.319 13.0145 190.811 16.7017C189.767 16.7369 188.725 16.7594 187.684 16.7658C186.482 13.0209 185.042 9.35293 183.672 5.66571Z" fill="white"/>
<path d="M0 1.1004C5.23197 1.09125 10.4639 1.10956 15.6959 1.09277C15.6898 6.34217 15.6836 11.5915 15.6928 16.8409C10.4624 16.8577 5.23197 16.8409 0 16.8486C0.00153161 11.5992 0.00612642 6.3498 0 1.1004Z" fill="white"/>
<path d="M49.435 1.67333C49.5682 1.43979 49.7244 1.21998 49.8898 1.00781C52.4798 5.45278 55.0422 9.91759 57.6781 14.3382C58.182 15.1762 58.6476 16.0417 59.2035 16.8492C52.9607 16.8476 46.7194 16.8492 40.4766 16.8476C43.4464 11.7799 46.4422 6.72735 49.435 1.67333Z" fill="white"/>
<path d="M27.9689 1.0641C29.9018 0.838185 31.9587 1.19537 33.55 2.36004C34.1152 2.81034 34.7202 3.224 35.1904 3.78115C36.405 5.20073 37.1662 7.02939 37.1631 8.90843C37.2412 11.6453 35.7464 14.3441 33.4244 15.7911C30.2709 17.8029 25.7388 17.255 23.1903 14.5104C21.8149 12.9977 20.9572 10.9615 21.0521 8.90232C21.0981 7.17593 21.6204 5.41595 22.7492 4.0788C24.0035 2.44247 25.9272 1.35565 27.9689 1.0641Z" fill="#1F6FFF"/>
</g>
<defs>
<clipPath id="clip0_5322_2900">
<rect width="196" height="17" fill="white"/>
</clipPath>
</defs>
</svg>
