<svg width="196" height="17" viewBox="0 0 196 17" fill="none" xmlns="http://www.w3.org/2000/svg">
<path d="M109.185 1.3923C110.487 -0.0300547 112.628 -0.238279 114.412 0.213413C114.38 0.786838 114.354 1.36345 114.328 1.94329C113.393 1.92727 112.281 1.71904 111.545 2.44303C110.558 3.23429 110.943 4.6054 110.834 5.701C111.831 5.72022 112.83 5.717 113.83 5.70739C113.827 6.35449 113.827 7.0016 113.836 7.65512C112.862 7.6359 111.892 7.62629 110.921 7.61668C110.892 10.66 110.934 13.7033 110.969 16.7466C110.066 16.737 109.166 16.737 108.266 16.7402C108.282 13.7065 108.253 10.676 108.292 7.64552C107.745 7.62309 107.202 7.60707 106.659 7.58465C106.649 6.97278 106.646 6.36411 106.636 5.75545C107.202 5.75225 107.771 5.74903 108.34 5.74583C108.301 4.27863 108.16 2.5936 109.185 1.3923Z" fill="white"/>
<path d="M115.839 0.149886C116.752 0.137072 117.668 0.137063 118.587 0.140266C118.59 5.68871 118.549 11.2308 118.552 16.7792C117.655 16.7728 116.758 16.776 115.861 16.7728C115.922 11.2308 115.855 5.69193 115.839 0.149886Z" fill="white"/>
<path d="M94.7496 0.210738C95.6239 0.201128 96.5014 0.191525 97.3789 0.178711C97.3243 2.34107 97.4721 4.50342 97.3532 6.66578C99.1629 4.99676 102.358 4.81736 104.036 6.76188C105.489 8.65514 105.466 11.2788 104.9 13.4956C104.46 15.2703 102.747 16.3916 101.069 16.8369C98.9539 17.2213 96.855 16.4909 94.7303 16.555C94.7078 11.1058 94.7335 5.65988 94.7496 0.210738ZM97.3628 8.50458C97.395 10.4907 97.3275 12.4769 97.35 14.4631C98.4975 14.8603 99.8443 15.296 100.966 14.5816C102.371 13.8448 102.612 12.0765 102.538 10.6541C102.506 9.52007 102.197 8.05609 100.963 7.66206C99.6932 7.15271 98.4171 7.84146 97.3628 8.50458Z" fill="white"/>
<path d="M61.1499 1.18094C62.1656 1.12968 63.1846 1.12968 64.2035 1.1425C65.0553 5.28141 66.4825 9.29539 67.0868 13.4888C68.3243 9.44596 69.4301 5.3519 70.5583 1.27706C71.484 1.26745 72.4066 1.26744 73.3323 1.27385C74.4316 5.39995 75.4827 9.54206 76.6656 13.6457C77.6042 9.45236 78.7485 5.30705 79.7803 1.13931C80.7317 1.14572 81.68 1.14571 82.6314 1.17134C80.9889 6.31294 79.4588 11.4898 78.0574 16.7051C77.0352 16.7115 76.0099 16.7275 74.9877 16.7435C74.0459 12.7231 72.8984 8.75719 71.8505 4.76564C70.6483 8.72195 69.6165 12.7327 68.4883 16.7115C67.4597 16.7147 66.4311 16.7147 65.4025 16.6986C64.7146 13.4535 63.731 10.2789 62.9146 7.06256C62.3264 5.10202 61.9117 3.08381 61.1499 1.18094Z" fill="white"/>
<path d="M157.587 1.17787C160.926 1.34766 164.552 0.642892 167.606 2.35996C169.92 3.51963 170.727 6.30985 170.749 8.71247C170.846 11.6437 169.431 14.8343 166.59 16.0036C163.723 17.1441 160.576 16.6123 157.574 16.7628C157.59 11.5668 157.571 6.37073 157.587 1.17787ZM160.328 3.3178C160.309 7.08511 160.345 10.8492 160.335 14.6133C162.415 14.687 164.748 14.6934 166.445 13.3095C167.625 12.1178 167.869 10.3206 167.834 8.71889C167.863 7.0787 167.419 5.22388 165.989 4.24041C164.334 3.11919 162.231 3.25053 160.328 3.3178Z" fill="white"/>
<path d="M83.5698 7.23262C85.1191 5.04144 88.581 4.71468 90.6606 6.31643C92.1778 7.71636 92.3385 9.94277 92.226 11.8745C89.7735 11.8168 87.3177 11.82 84.8652 11.8617C85.0452 12.874 85.328 14.0048 86.3245 14.5238C88.0442 15.4207 90.111 14.9723 91.821 14.2739C91.8628 14.9242 91.911 15.5777 91.9689 16.2344C90.2396 16.9552 88.311 17.1474 86.4659 16.8559C84.6177 16.5196 82.9269 15.1196 82.5476 13.2392C82.1201 11.2306 82.2873 8.91766 83.5698 7.23262ZM86.0384 7.76441C85.2862 8.3058 85.1159 9.27004 84.8459 10.0933C86.5238 10.1254 88.2049 10.0709 89.886 10.0421C89.722 9.21879 89.7574 8.21289 88.9956 7.6715C88.1309 7.09487 86.8516 7.07887 86.0384 7.76441Z" fill="white"/>
<path d="M124.415 5.7459C126.343 5.1084 128.712 5.15646 130.329 6.51474C132.688 8.5874 132.785 12.4316 131.126 14.9559C129.519 17.1567 126.292 17.3842 123.926 16.4199C119.86 14.3953 120.165 7.37968 124.415 5.7459ZM125.63 7.49822C124.299 8.09727 123.945 9.63494 123.875 10.9516C123.884 12.092 124 13.3574 124.832 14.2255C125.909 15.523 128.208 15.1994 128.976 13.7194C129.712 12.1945 129.705 10.3237 129.03 8.77641C128.484 7.54306 126.851 6.90878 125.63 7.49822Z" fill="white"/>
<path d="M133.315 5.61473C134.232 5.61153 135.151 5.62754 136.07 5.64676C136.71 8.46262 137.488 11.2433 138.134 14.0591C139.047 11.2913 139.808 8.47864 140.647 5.6884C141.535 5.65637 142.428 5.65317 143.318 5.67239C144.093 8.52029 144.742 11.4034 145.62 14.2193C146.51 11.3938 147.127 8.49147 148.011 5.65958C148.876 5.64997 149.747 5.64035 150.615 5.64676C149.288 9.31796 148.343 13.1173 146.922 16.7565C145.941 16.7565 144.964 16.7629 143.987 16.7661C143.331 13.9246 142.547 11.1151 141.885 8.27683C140.933 11.0543 140.307 13.9342 139.333 16.7052C138.362 16.7597 137.391 16.7565 136.424 16.7533C135.482 13.0148 134.27 9.35 133.315 5.61473Z" fill="white"/>
<path d="M173.649 7.63631C175.301 4.67628 180.412 4.4168 182.029 7.53059C182.849 8.83441 182.73 10.4137 182.694 11.8873C180.255 11.8201 177.812 11.8201 175.372 11.8713C175.378 13.1175 176.012 14.4213 177.259 14.8474C178.908 15.3567 180.672 14.9435 182.238 14.3412C182.247 15.0204 182.26 15.7059 182.251 16.3883C179.827 17.0001 176.992 17.4422 174.764 16.0263C172.129 14.1682 172.119 10.1959 173.649 7.63631ZM176.536 7.67475C175.722 8.18731 175.526 9.1772 175.349 10.0485C177.014 10.0934 178.683 10.0774 180.351 10.0934C180.19 9.42065 180.11 8.71908 179.821 8.0912C179.149 7.02764 177.477 6.8963 176.536 7.67475Z" fill="white"/>
<path d="M183.671 5.66577C184.642 5.64015 185.613 5.63375 186.584 5.69782C187.57 8.58737 188.445 11.5122 189.419 14.4081C190.428 11.4961 191.537 8.6162 192.369 5.65297C193.295 5.62414 194.221 5.60491 195.15 5.56647C193.559 9.22165 192.318 13.0146 190.81 16.7018C189.766 16.737 188.724 16.7595 187.683 16.7659C186.481 13.021 185.041 9.35299 183.671 5.66577Z" fill="white"/>
<path d="M0 1.10077C5.23197 1.09162 10.4639 1.10993 15.6959 1.09314C15.6898 6.34254 15.6836 11.5919 15.6928 16.8413C10.4624 16.8581 5.23197 16.8413 0 16.849C0.00153161 11.5996 0.00612642 6.35017 0 1.10077Z" fill="white"/>
<path d="M49.4357 1.67297C49.5689 1.43943 49.7251 1.21962 49.8905 1.00745C52.4805 5.45242 55.0429 9.91723 57.6788 14.3378C58.1827 15.1758 58.6483 16.0413 59.2042 16.8488C52.9614 16.8472 46.7201 16.8488 40.4773 16.8472C43.4471 11.7795 46.4429 6.72699 49.4357 1.67297Z" fill="white"/>
<path d="M27.9686 1.0641C29.9015 0.838186 31.9584 1.19537 33.5497 2.36004C34.1149 2.81034 34.7199 3.224 35.1901 3.78115C36.4047 5.20073 37.1659 7.02939 37.1628 8.90843C37.2409 11.6453 35.7461 14.3441 33.4241 15.7911C30.2706 17.8029 25.7385 17.255 23.19 14.5104C21.8146 12.9977 20.9569 10.9615 21.0518 8.90232C21.0978 7.17593 21.6201 5.41595 22.7489 4.0788C24.0032 2.44247 25.9269 1.35565 27.9686 1.0641Z" fill="#423AE6"/>
</svg>
