<svg width="1600" height="900" viewBox="0 0 1600 900" fill="none" xmlns="http://www.w3.org/2000/svg">
  <defs>
    <linearGradient id="bg2" x1="0" y1="0" x2="1600" y2="900" gradientUnits="userSpaceOnUse">
      <stop stop-color="#0E1015"/>
      <stop offset="1" stop-color="#090A0E"/>
    </linearGradient>
  </defs>
  <rect width="1600" height="900" fill="url(#bg2)"/>
  <rect x="170" y="120" width="1260" height="660" rx="24" fill="#10141D" stroke="#2D3446"/>
  <rect x="220" y="170" width="640" height="80" rx="10" fill="#1D2433"/>
  <rect x="220" y="280" width="370" height="18" rx="6" fill="#2A3144"/>
  <rect x="220" y="310" width="400" height="18" rx="6" fill="#2A3144"/>
  <rect x="220" y="340" width="350" height="18" rx="6" fill="#2A3144"/>
  <rect x="220" y="390" width="190" height="52" rx="10" fill="#1F6FFF"/>
  <rect x="910" y="170" width="470" height="480" rx="18" fill="#171D2A"/>
  <rect x="950" y="220" width="390" height="170" rx="14" fill="#1F6FFF" opacity="0.85"/>
  <rect x="950" y="420" width="240" height="16" rx="6" fill="#36405A"/>
  <rect x="950" y="448" width="320" height="16" rx="6" fill="#36405A"/>
  <rect x="950" y="476" width="290" height="16" rx="6" fill="#36405A"/>
  <text x="230" y="225" fill="#E8E8ED" font-size="54" font-family="Inter, Arial, sans-serif" font-weight="700">Business Site</text>
</svg>
