<svg width="1600" height="900" viewBox="0 0 1600 900" fill="none" xmlns="http://www.w3.org/2000/svg">
  <defs>
    <linearGradient id="bg3" x1="0" y1="0" x2="1600" y2="900" gradientUnits="userSpaceOnUse">
      <stop stop-color="#0F1118"/>
      <stop offset="1" stop-color="#07080C"/>
    </linearGradient>
  </defs>
  <rect width="1600" height="900" fill="url(#bg3)"/>
  <rect x="150" y="110" width="1300" height="680" rx="24" fill="#0E121A" stroke="#283046"/>
  <rect x="210" y="170" width="1180" height="72" rx="12" fill="#151B28"/>
  <rect x="250" y="196" width="220" height="20" rx="8" fill="#2C3550"/>
  <rect x="480" y="196" width="220" height="20" rx="8" fill="#2C3550"/>
  <rect x="710" y="196" width="220" height="20" rx="8" fill="#2C3550"/>
  <rect x="940" y="196" width="220" height="20" rx="8" fill="#2C3550"/>
  <rect x="210" y="280" width="360" height="430" rx="16" fill="#151A27"/>
  <rect x="600" y="280" width="360" height="430" rx="16" fill="#151A27"/>
  <rect x="990" y="280" width="400" height="430" rx="16" fill="#151A27"/>
  <rect x="240" y="330" width="300" height="150" rx="12" fill="#1F6FFF" opacity="0.8"/>
  <rect x="630" y="330" width="300" height="150" rx="12" fill="#1F6FFF" opacity="0.8"/>
  <rect x="1020" y="330" width="340" height="150" rx="12" fill="#1F6FFF" opacity="0.8"/>
  <text x="230" y="735" fill="#E8E8ED" font-size="52" font-family="Inter, Arial, sans-serif" font-weight="700">CMS + Blog</text>
</svg>
